<?xml version="1.0" encoding="utf-8"?>
<!-- Generator: Adobe Illustrator 16.0.0, SVG Export Plug-In . SVG Version: 6.00 Build 0)  -->
<!DOCTYPE svg PUBLIC "-//W3C//DTD SVG 1.1//EN" "http://www.w3.org/Graphics/SVG/1.1/DTD/svg11.dtd">
<svg version="1.1" id="github" xmlns="http://www.w3.org/2000/svg" xmlns:xlink="http://www.w3.org/1999/xlink" x="0px" y="0px"
	 width="144px" height="144px" viewBox="0 0 144 144" enable-background="new 0 0 144 144" xml:space="preserve">
<circle fill="#FF9933" cx="72" cy="72" r="69.12"/>
<path fill="#F7F7F7" d="M72,36.72c-19.485,0-35.28,15.795-35.28,35.28c0,19.484,15.795,35.279,35.28,35.279
	c19.484,0,35.279-15.795,35.279-35.279C107.279,52.515,91.484,36.72,72,36.72z M92.951,92.951c-2.723,2.723-5.893,4.86-9.42,6.353
	c-0.896,0.379-1.807,0.712-2.729,0.999v-5.288c0-2.779-0.953-4.823-2.859-6.132c1.193-0.115,2.291-0.275,3.29-0.482
	s2.056-0.506,3.169-0.896c1.114-0.391,2.113-0.856,2.998-1.396c0.884-0.54,1.734-1.241,2.549-2.102
	c0.815-0.861,1.5-1.837,2.051-2.929c0.551-1.09,0.987-2.4,1.309-3.928c0.32-1.527,0.482-3.209,0.482-5.047
	c0-3.56-1.16-6.591-3.48-9.096c1.057-2.756,0.942-5.753-0.344-8.992l-0.861-0.103c-0.598-0.069-1.672,0.184-3.222,0.758
	c-1.55,0.575-3.29,1.516-5.22,2.825c-2.733-0.758-5.569-1.137-8.51-1.137c-2.963,0-5.788,0.379-8.476,1.137
	c-1.217-0.827-2.372-1.51-3.462-2.05s-1.963-0.907-2.619-1.103c-0.654-0.195-1.263-0.316-1.826-0.362
	c-0.563-0.046-0.924-0.057-1.085-0.035s-0.276,0.046-0.344,0.069c-1.287,3.262-1.401,6.26-0.344,8.992
	c-2.32,2.503-3.48,5.536-3.48,9.096c0,1.838,0.161,3.52,0.482,5.047s0.758,2.838,1.309,3.928c0.551,1.092,1.235,2.067,2.05,2.929
	c0.815,0.86,1.665,1.562,2.549,2.102s1.884,1.005,2.998,1.396s2.17,0.689,3.169,0.896s2.096,0.367,3.291,0.482
	c-1.884,1.286-2.826,3.33-2.826,6.132v5.391c-1.04-0.31-2.065-0.675-3.073-1.102c-3.527-1.492-6.697-3.63-9.42-6.353
	c-2.723-2.723-4.86-5.893-6.353-9.42C43.152,79.883,42.37,76.004,42.37,72c0-4.003,0.783-7.883,2.327-11.532
	c1.492-3.527,3.629-6.696,6.353-9.419s5.893-4.86,9.419-6.353C64.117,43.152,67.997,42.37,72,42.37
	c4.004,0,7.883,0.783,11.531,2.327c3.528,1.492,6.697,3.629,9.42,6.353s4.86,5.893,6.353,9.419c1.543,3.65,2.325,7.529,2.325,11.532
	c0,4.002-0.782,7.883-2.326,11.531C97.811,87.059,95.674,90.229,92.951,92.951L92.951,92.951z"/>
</svg>
