<?xml version="1.0" encoding="utf-8"?>
<!-- Generator: Adobe Illustrator 16.0.0, SVG Export Plug-In . SVG Version: 6.00 Build 0)  -->
<!DOCTYPE svg PUBLIC "-//W3C//DTD SVG 1.1//EN" "http://www.w3.org/Graphics/SVG/1.1/DTD/svg11.dtd">
<svg version="1.1" id="twitter" xmlns="http://www.w3.org/2000/svg" xmlns:xlink="http://www.w3.org/1999/xlink" x="0px" y="0px"
	 width="144px" height="144px" viewBox="0 0 144 144" enable-background="new 0 0 144 144" xml:space="preserve">
<circle fill="#FF9933" cx="72" cy="72" r="69.12"/>
<g>
	<path fill-rule="evenodd" clip-rule="evenodd" fill="#FFFFFF" d="M118.923,118.112C100.954,84.995,83.122,52.13,65.292,19.266
		c-0.396,0.511-0.414,1.041-0.191,1.433c0.616,1.087,1.455,2.057,1.991,3.176c5.411,11.264,10.748,22.563,16.169,33.821
		c3.717,7.721,7.567,15.377,11.292,23.092c6.104,12.645,12.132,25.324,18.306,37.932c0.337,0.691,1.802,1.309,2.61,1.172
		C116.643,119.694,117.699,118.784,118.923,118.112z M50.954,16.544c-2.583,3.078-5.372,3.803-8.981,1.666
		c1.924,3.465,1.276,6.29-1.325,9.172c4.477-1.421,6.401,1.339,8.311,4.358c0.178-4.121,2.5-6.072,6.317-6.95
		C51.56,23.168,50.574,20.415,50.954,16.544z M68.76,86.534c-0.64,4.151-3.053,5.795-7.127,5.989
		c3.279,2.113,4.865,4.657,3.702,8.529c1.423-0.874,2.846-1.749,4.286-2.632c1.361,0.676,2.78,1.383,4.2,2.089
		c-1.223-3.628,0.019-6.322,3.253-9.055C72.489,91.977,70.288,90.105,68.76,86.534z M33.21,47.497
		c-0.984-1.448-2.352-2.655-2.612-4.066c-0.267-1.445,0.552-3.089,0.953-4.913c-1.783,0.681-3.286,1.255-4.75,1.815
		c-1.415-0.993-2.841-1.993-4.536-3.183c0.113,2.016,0.742,3.869,0.145,5.149c-0.634,1.36-2.431,2.179-4.333,3.737
		c4.588-0.002,6.477,2.387,7.026,6.223C29.106,47.859,29.106,47.859,33.21,47.497z M44.159,70.926
		c-3.838-1.615-5.07-4.312-4.238-8.529c-1.816,1.527-2.914,3.14-4.283,3.416c-1.464,0.295-3.182-0.67-5.48-1.262
		c2.614,3.406,2.142,6.217-0.468,9.217c4.375-1.558,6.135,1.443,8.367,4.471C38.417,74.097,39.94,71.586,44.159,70.926z
		 M48.532,85.461c0-0.674,0-1.613,0-2.472c-0.845-0.419-1.9-0.938-2.947-1.456c-0.56,0.878-1.16,1.819-1.636,2.567
		c0.641,1.082,1.211,2.045,1.671,2.82C46.583,86.438,47.458,86,48.532,85.461z M18.753,63.349c0.339,0.676,0.771,1.543,1.145,2.289
		c1.021,0.08,2.101,0.162,3.067,0.236c0.267-0.95,0.577-2.055,0.829-2.953c-0.961-0.71-1.852-1.369-2.565-1.896
		C20.381,61.821,19.562,62.591,18.753,63.349z M42.579,37.632c-0.546-0.861-1.131-1.783-1.589-2.503
		c-0.946,0.362-1.906,0.729-2.778,1.062c-0.106,1.006-0.208,1.969-0.297,2.817c0.973,0.451,1.891,0.876,2.768,1.282
		C41.354,39.348,42.017,38.419,42.579,37.632z M31.738,83.638c0,0.487,0,1.457,0,2.234c0.914,0.469,1.767,0.911,2.639,1.359
		c0.618-0.78,1.29-1.632,1.868-2.365c-0.561-1.081-1.099-2.119-1.555-2.996C33.857,82.368,33.042,82.856,31.738,83.638z"/>
	<path fill-rule="evenodd" clip-rule="evenodd" fill="#FFFFFF" d="M118.923,118.112c-1.224,0.672-2.28,1.582-3.454,1.779
		c-0.809,0.137-2.273-0.48-2.61-1.172c-6.174-12.607-12.201-25.287-18.306-37.932c-3.725-7.715-7.575-15.372-11.292-23.092
		C77.84,46.437,72.503,35.138,67.092,23.875c-0.536-1.119-1.375-2.089-1.991-3.176c-0.223-0.393-0.205-0.922,0.191-1.433
		C83.122,52.13,100.954,84.995,118.923,118.112z"/>
	<path fill-rule="evenodd" clip-rule="evenodd" fill="#FFFFFF" d="M50.954,16.544c-0.38,3.871,0.606,6.624,4.321,8.246
		c-3.817,0.878-6.139,2.83-6.317,6.95c-1.91-3.019-3.833-5.779-8.311-4.358c2.601-2.882,3.249-5.707,1.325-9.172
		C45.583,20.347,48.372,19.623,50.954,16.544z"/>
	<path fill-rule="evenodd" clip-rule="evenodd" fill="#FFFFFF" d="M68.76,86.534c1.528,3.571,3.729,5.442,8.314,4.921
		c-3.234,2.732-4.476,5.427-3.253,9.055c-1.42-0.706-2.839-1.413-4.2-2.089c-1.44,0.883-2.863,1.758-4.286,2.632
		c1.163-3.872-0.423-6.416-3.702-8.529C65.707,92.329,68.12,90.686,68.76,86.534z"/>
	<path fill-rule="evenodd" clip-rule="evenodd" fill="#FFFFFF" d="M33.21,47.497c-4.104,0.362-4.104,0.362-8.107,4.763
		c-0.549-3.836-2.438-6.225-7.026-6.223c1.902-1.558,3.699-2.377,4.333-3.737c0.597-1.281-0.032-3.133-0.145-5.149
		c1.695,1.189,3.121,2.19,4.536,3.183c1.464-0.56,2.967-1.134,4.75-1.815c-0.401,1.824-1.22,3.468-0.953,4.913
		C30.858,44.842,32.226,46.049,33.21,47.497z"/>
	<path fill-rule="evenodd" clip-rule="evenodd" fill="#FFFFFF" d="M44.159,70.926c-4.219,0.66-5.742,3.171-6.102,7.313
		c-2.232-3.027-3.993-6.028-8.367-4.471c2.61-3,3.082-5.811,0.468-9.217c2.299,0.592,4.017,1.557,5.48,1.262
		c1.369-0.276,2.467-1.889,4.283-3.416C39.088,66.614,40.321,69.311,44.159,70.926z"/>
	<path fill-rule="evenodd" clip-rule="evenodd" fill="#FFFFFF" d="M48.532,85.461c-1.075,0.539-1.95,0.977-2.912,1.46
		c-0.46-0.775-1.03-1.738-1.671-2.82c0.477-0.748,1.077-1.689,1.636-2.567c1.047,0.518,2.102,1.037,2.947,1.456
		C48.532,83.848,48.532,84.787,48.532,85.461z"/>
	<path fill-rule="evenodd" clip-rule="evenodd" fill="#FFFFFF" d="M18.753,63.349c0.808-0.758,1.627-1.528,2.475-2.325
		c0.713,0.527,1.604,1.187,2.565,1.896c-0.251,0.897-0.562,2.002-0.829,2.953c-0.966-0.074-2.045-0.156-3.067-0.236
		C19.525,64.892,19.092,64.025,18.753,63.349z"/>
	<path fill-rule="evenodd" clip-rule="evenodd" fill="#FFFFFF" d="M42.579,37.632c-0.562,0.787-1.224,1.716-1.896,2.657
		c-0.877-0.406-1.795-0.831-2.768-1.282c0.09-0.848,0.191-1.811,0.297-2.817c0.873-0.333,1.832-0.7,2.778-1.062
		C41.448,35.849,42.032,36.771,42.579,37.632z"/>
	<path fill-rule="evenodd" clip-rule="evenodd" fill="#FFFFFF" d="M31.738,83.638c1.303-0.781,2.119-1.27,2.951-1.768
		c0.456,0.877,0.995,1.915,1.555,2.996c-0.578,0.733-1.25,1.585-1.868,2.365c-0.872-0.448-1.725-0.891-2.639-1.359
		C31.738,85.095,31.738,84.125,31.738,83.638z"/>
</g>
</svg>
