<?xml version="1.0" encoding="utf-8"?>
<!-- Generator: Adobe Illustrator 16.0.0, SVG Export Plug-In . SVG Version: 6.00 Build 0)  -->
<!DOCTYPE svg PUBLIC "-//W3C//DTD SVG 1.1//EN" "http://www.w3.org/Graphics/SVG/1.1/DTD/svg11.dtd">
<svg version="1.1" id="linkedin" xmlns="http://www.w3.org/2000/svg" xmlns:xlink="http://www.w3.org/1999/xlink" x="0px" y="0px"
	 width="144px" height="144px" viewBox="0 0 144 144" enable-background="new 0 0 144 144" xml:space="preserve">
<circle fill="#FF9933" cx="72" cy="72" r="69.12"/>
<path fill="#F7F7F7" d="M95.428,36.72H48.572c-6.518,0-11.852,5.333-11.852,11.852v46.856c0,6.519,5.333,11.852,11.852,11.852
	h46.856c6.519,0,11.852-5.333,11.852-11.852V48.572C107.279,42.054,101.946,36.72,95.428,36.72z M63.18,94.05h-8.82V63.18h8.82
	V94.05z M58.77,58.77c-2.436,0-4.41-1.974-4.41-4.41c0-2.436,1.975-4.41,4.41-4.41s4.41,1.974,4.41,4.41
	C63.18,56.796,61.206,58.77,58.77,58.77z M94.05,94.05H85.23V76.41c0-2.436-1.975-4.41-4.41-4.41s-4.41,1.975-4.41,4.41v17.64h-8.82
	V63.18h8.82v5.476c1.818-2.499,4.6-5.476,7.718-5.476c5.48,0,9.923,4.936,9.923,11.025L94.05,94.05L94.05,94.05z"/>
</svg>
