<?xml version="1.0" encoding="utf-8"?>
<!-- Generator: Adobe Illustrator 16.0.0, SVG Export Plug-In . SVG Version: 6.00 Build 0)  -->
<!DOCTYPE svg PUBLIC "-//W3C//DTD SVG 1.1//EN" "http://www.w3.org/Graphics/SVG/1.1/DTD/svg11.dtd">
<svg version="1.1" id="twitter" xmlns="http://www.w3.org/2000/svg" xmlns:xlink="http://www.w3.org/1999/xlink" x="0px" y="0px"
	 width="144px" height="144px" viewBox="0 0 144 144" enable-background="new 0 0 144 144" xml:space="preserve">
<circle fill="#FF9933" cx="72" cy="72" r="69.12"/>
<path fill="#F7F7F7" d="M107.281,49.988c-2.597,1.158-5.387,1.94-8.314,2.292c2.988-1.802,5.283-4.656,6.365-8.056
	c-2.797,1.669-5.895,2.88-9.192,3.534c-2.641-2.83-6.403-4.599-10.567-4.599c-7.994,0-14.477,6.519-14.477,14.561
	c0,1.141,0.127,2.252,0.375,3.318c-12.031-0.608-22.698-6.404-29.838-15.214c-1.246,2.151-1.96,4.653-1.96,7.321
	c0,5.052,2.556,9.51,6.44,12.12c-2.373-0.075-4.606-0.73-6.556-1.821c-0.001,0.062-0.001,0.123-0.001,0.184
	c0,7.055,4.99,12.94,11.613,14.278c-1.215,0.334-2.493,0.512-3.814,0.512c-0.933,0-1.839-0.092-2.724-0.262
	c1.842,5.785,7.188,9.996,13.523,10.113c-4.954,3.904-11.197,6.232-17.979,6.232c-1.168,0-2.32-0.068-3.453-0.203
	c6.407,4.132,14.016,6.543,22.19,6.543c26.627,0,41.188-22.188,41.188-41.431c0-0.631-0.015-1.258-0.043-1.884
	C102.885,55.473,105.34,52.907,107.281,49.988z"/>
</svg>
